# xmcd
# Copyright (C) 1995-1998 Ti Kan
#
# Track frame offsets:
#       150
#       13986
#       27683
#       45147
#       62360
#       80870
#       99832
#       120660
#       138705
#       157281
#       171134
#       194086
#       206279
#       217564
#
# Disc length: 3091 seconds
#
# Revision: 0
# Processed by: cddbd v1.5.2PL0 Copyright (c) Steve Scherf et al.
# Submitted via: CD-Transfer v1.0
#
DISCID=c10c110e
DTITLE=Alfred E. Mair - Stürmend Duch Die Zeit
DYEAR=09
DGENRE=
TTITLE0=Immer Nach Vorne Sehen
TTITLE1=Reiterlied
TTITLE2=Wenn Du Nicht Da Bist
TTITLE3=Blumen Im Regen
TTITLE4=Im Himmel Soll Es Gummibärchen Regnen
TTITLE5=Du Hast Nicht Geschwiegen
TTITLE6=Mutter Hör Zu
TTITLE7=Micha
TTITLE8=Liebe Worte Auf Schokoladepapier
TTITLE9=Dann Gibt Es Nur Eins
TTITLE10=Wünsche
TTITLE11=Melodie
TTITLE12=Weng Se
TTITLE13=Zösenberg
EXTD=
EXTT0=
EXTT1=
EXTT2=
EXTT3=
EXTT4=
EXTT5=
EXTT6=
EXTT7=
EXTT8=
EXTT9=
EXTT10=
EXTT11=
EXTT12=
EXTT13=
PLAYORDER=
